<?xml version="1.0" encoding="utf-8"?><svg width="311" height="276" viewBox="0 0 311 276" xmlns="http://www.w3.org/2000/svg" xmlns:xlink="http://www.w3.org/1999/xlink"><svg width="48" height="26" viewBox="-4 -4 48 26" id="icon_answer_40x18_gray" x="109" y="142" xmlns="http://www.w3.org/2000/svg"><defs><path id="aaa" d="M35 11h-1V9h-2v1h-5V4h1v2h3V4h1v1h2V4h1v7zm0 3h-7v-3h1v2h6v1zm-9-7h-1v2h-1V4h1v2h1v1zm-1 7h-7v-4h1v1h5v-1h1v4zM17 4h5v1h-4v3h5v1h-6V4zm21-4H14a2 2 0 00-2 2v14a2 2 0 002 2h24a2 2 0 002-2V2a2 2 0 00-2-2zm-6 8h2V6h-2v2zm-4 1h3V7h-3v2zm-9 4h5v-1h-5v1z"/></defs><g fill="none" fill-rule="evenodd"><use fill="#A3A9B3" xlink:href="#aaa"/><path stroke="#000" stroke-opacity=".1" d="M33.5 9.5h-1v1h-6v-7h2v2h2v-2h2v1h1v-1h2v8h-2v-2zm-4 3h6v2h-8v-4h2v2zm-5-3.5l.5-.5h-.5v-.75 1-.25zm1-1.5v2h-2v-6h2v2h1v2h-1zm-6 3h4v-1h2v5h-8v-5h2v1zm-1-5v2h5v2h-7v-6h6v2h-4zM38 .5A1.5 1.5 0 0139.5 2v14a1.5 1.5 0 01-1.5 1.5H14a1.5 1.5 0 01-1.5-1.5V2A1.5 1.5 0 0114 .5h24zm-5.5 6V6l-.5.5h.5zm1 0h.5l-.5-.5v.5zm0 1V8l.5-.5h-.5zm-1 0H32l.5.5v-.5zm0 0v-1h1v1h-1zm-4 0V7l-.5.5h.5zm2 0h.5l-.5-.5v.5zm0 1V9l.5-.5h-.5zm-2 0H28l.5.5v-.5zm0 0v-1h2v1h-2zm-9 4V12l-.5.5h.5zm0 0H19l.5.5v-.5zm4 0v.5l.5-.5h-.5zm0 0h-4H24l-.5-.5v.5z"/><path fill="#C2C2C2" d="M1 8V1H0v8h8V8H1z"/></g></svg><svg width="22" height="18" viewBox="-4 -4 22 18" id="icon_check_14x10_black" x="192" y="115" xmlns="http://www.w3.org/2000/svg"><path fill="#090909" fill-rule="evenodd" d="M4.682 10a.8.8 0 01-.564-.23L.233 5.927a.782.782 0 010-1.114.803.803 0 011.127 0l3.322 3.284L12.639.23a.803.803 0 011.127 0 .781.781 0 010 1.114L5.246 9.77a.8.8 0 01-.564.231"/></svg><svg width="114" height="27" viewBox="-4 -4 114 27" id="icon_datalab_106x19_black" y="115" xmlns="http://www.w3.org/2000/svg"><g fill="none" fill-rule="evenodd"><path fill="#1E1E1E" d="M58 0v19h11v-2.373h-8.676V0zm28 0v16.56L88.368 19h7.264L98 16.56V7.237l-2.398-2.471h-5.26l-2.125 2.19V0H86zm2.217 15.912v-6.29l2.695-2.776h3.863l.978 1.007-.002 8.06-.978 1.008h-5.577l-.979-1.009zM19.522 5l-1.815 1.863 1.348 1.384 1.171-1.202h5.62l.966.99v2.616h-7.58L17 12.951v3.626L19.333 19h7.33L29 16.599V7.4L26.662 5h-7.14zm-.334 10.952v-2.354l.998-1.018h6.626v3.387l-.963.988h-5.695l-.966-1.003zM43.522 5l-1.815 1.863 1.348 1.384 1.171-1.202h5.62l.966.99v2.616h-7.58L41 12.951v3.626L43.333 19h7.33L53 16.599V7.4L50.662 5h-7.14zm-.334 10.952v-2.354l.998-1.018h6.626v3.387l-.963.988h-5.695l-.966-1.003zM73.522 5l-1.814 1.863 1.347 1.384 1.172-1.202h5.62l.965.99v2.616h-7.58L71 12.951v3.626L73.333 19h7.33L83 16.599V7.4L80.662 5h-7.14zm-.334 10.952v-2.354l.998-1.018h6.626v3.387l-.962.988h-5.696l-.966-1.003zM32 0v16.647L34.362 19H39v-2.079h-3.664l-1.012-1.008V6.791H39V4.71h-4.676V0zM0 0v19h10.451L14 15.462V3.538L10.451 0H0zm2.413 2.32H9.53l2.04 2.05v10.26l-2.04 2.05H2.413V2.32z"/><path fill="#00C73C" d="M102 19h4v-4h-4z"/></g></svg><svg width="26" height="21" viewBox="-4 -4 26 21" id="icon_double_quotation_open_18x13_black" x="205" y="90" xmlns="http://www.w3.org/2000/svg"><path d="M4.22 12.857c-1.99 0-3.483-1.247-4.08-3.069-.398-1.726.05-4.173 1.393-6.138C2.826 1.78 4.618.485 5.96.054c.846-.24 1.194.383.547.815C5.86 1.3 4.915 1.972 4.17 3.122c-.547.672-1.145 1.824-1.344 2.829 1.194-.91 2.836-.335 3.78.288C7.453 6.816 8 7.822 8 9.165c0 2.014-1.691 3.692-3.78 3.692m10 0c-1.99 0-3.483-1.247-4.08-3.069-.398-1.726.05-4.173 1.393-6.138C12.826 1.78 14.619.485 15.96.054c.846-.24 1.194.383.548.815-.648.432-1.593 1.103-2.34 2.253-.546.672-1.143 1.824-1.343 2.829 1.195-.91 2.837-.335 3.78.288C17.454 6.816 18 7.822 18 9.165c0 2.014-1.69 3.692-3.78 3.692" fill-rule="evenodd"/></svg><svg width="127" height="115" viewBox="-4 -4 127 115" id="icon_event_banner_pattern_119x107" xmlns="http://www.w3.org/2000/svg"><defs><linearGradient id="aea" x1="50%" x2="50%" y1="0%" y2="100%"><stop offset="0%" stop-color="#FFF"/><stop offset="100%" stop-color="#FFF" stop-opacity=".25"/></linearGradient></defs><circle cx="569.5" cy="107.5" r="88.5" fill="url(#aea)" fill-rule="evenodd" opacity=".05" transform="translate(-481 -19)"/></svg><svg width="56" height="48" viewBox="-4 -4 56 48" id="icon_event_banner_pattern_48x40" x="243" y="130" xmlns="http://www.w3.org/2000/svg"><path fill="#FFF" fill-rule="evenodd" d="M8.219 34.081a24.147 24.147 0 01-1.23-1.15L40.935-1.007c.398.397.781.807 1.15 1.23L8.22 34.08zm1.166.955L43.04 1.39c.346.45.676.914.99 1.389L10.774 36.027a24.071 24.071 0 01-1.389-.99zm-3.421-3.2a24.12 24.12 0 01-1.071-1.308L38.532-3.104c.448.342.884.7 1.307 1.071L5.964 31.835zM4.009 29.29c-.32-.479-.622-.97-.907-1.472l32.72-32.713c.502.285.993.587 1.472.907L4.009 29.29zm-1.637-2.863a23.862 23.862 0 01-.724-1.655L32.776-6.351c.562.222 1.114.464 1.655.725L2.37 26.427zm-1.279-3.222a23.819 23.819 0 01-.506-1.873l28.75-28.744a23.88 23.88 0 011.872.507L1.093 23.205zM0 15.298c.025-.877.097-1.742.213-2.592L20.71-7.787c.85-.117 1.715-.188 2.592-.213L0 15.298zm.03 2.09L25.393-7.968a23.9 23.9 0 012.157.222L.252 19.546a24.09 24.09 0 01-.222-2.157zM1.607 7.313l13.71-13.706a23.813 23.813 0 012.76-.882L.725 10.073c.24-.944.535-1.865.882-2.76zm2.214-4.334a24.129 24.129 0 017.16-7.16l-7.16 7.16zM39.5 34.305a24.002 24.002 0 01-6.186 3.807L46.11 25.319a24.002 24.002 0 01-3.808 6.186l-2.801 2.8zm-9.403 4.901a23.87 23.87 0 01-2.958.58l20.645-20.641a23.886 23.886 0 01-.58 2.958L30.098 39.206zm-5.27.77a24.435 24.435 0 01-2.348-.032l25.464-25.458a24.368 24.368 0 01.032 2.346L24.827 39.976zm-4.272-.23a23.896 23.896 0 01-2.004-.374l28.82-28.815c.153.658.278 1.326.375 2.004l-27.19 27.185zm-3.674-.826a23.817 23.817 0 01-1.759-.62L46.301 7.127c.229.576.436 1.162.62 1.758L16.881 38.92zm-4.795-2.085l32.75-32.744c.292.51.565 1.03.819 1.561L13.647 37.654a23.93 23.93 0 01-1.56-.819z" opacity=".06"/></svg><svg width="68" height="62" viewBox="-4 -4 68 62" id="icon_event_banner_pattern_60x54" x="243" xmlns="http://www.w3.org/2000/svg"><circle cx="33" cy="33" r="33" fill="#FFF" fill-rule="evenodd" opacity=".055" transform="translate(-6 -12)"/></svg><svg width="78" height="21" viewBox="-4 -4 78 21" id="icon_fivestar_70x13_gray" x="127" y="90" xmlns="http://www.w3.org/2000/svg"><g fill="none" fill-rule="evenodd"><path fill="#DBDBDB" d="M4.99 4.913l-.347.004-4.179.06 3.591 2.831-.097.322-1.185 3.983L6.5 9.597l.277.185 3.45 2.33-1.281-4.304.263-.208 3.327-2.623-4.525-.064L6.5.573z"/><path stroke="#CACACA" stroke-linecap="round" stroke-linejoin="round" d="M6.5.573l-1.51 4.34-.347.005-4.179.059 3.59 2.831-.095.322-1.186 3.982L6.5 9.596l.277.187 3.45 2.33-1.282-4.305.265-.208 3.326-2.623-4.525-.064z"/><path fill="#DBDBDB" d="M33.368 4.913l-.347.004-4.178.06 3.59 2.831-.096.322-1.186 3.983 3.727-2.516.277.185 3.45 2.33-1.28-4.304.263-.208 3.326-2.623-4.525-.064-1.51-4.34z"/><path stroke="#CACACA" stroke-linecap="round" stroke-linejoin="round" d="M34.879.573l-1.511 4.34-.347.005-4.178.059 3.59 2.831-.096.322-1.186 3.982 3.728-2.516.276.187 3.45 2.33-1.282-4.305.265-.208 3.326-2.623-4.525-.064z"/><path fill="#DBDBDB" d="M19.18 4.913l-.348.004-4.179.06 3.591 2.831-.096.322-1.186 3.983 3.727-2.516.277.185 3.45 2.33-1.281-4.304.264-.208 3.326-2.623-4.525-.064-1.51-4.34z"/><path stroke="#CACACA" stroke-linecap="round" stroke-linejoin="round" d="M20.69.573l-1.511 4.34-.347.005-4.178.059 3.59 2.831-.096.322-1.186 3.982 3.727-2.516.277.187 3.45 2.33-1.282-4.305.265-.208 3.326-2.623-4.525-.064z"/><path fill="#DBDBDB" d="M47.558 4.913l-.348.004-4.178.06 3.59 2.831-.096.322-1.186 3.983 3.727-2.516.277.185 3.45 2.33-1.28-4.304.263-.208 3.326-2.623-4.525-.064-1.51-4.34z"/><path stroke="#CACACA" stroke-linecap="round" stroke-linejoin="round" d="M49.068.573l-1.511 4.34-.346.005-4.179.059 3.59 2.831-.096.322-1.186 3.982 3.728-2.516.276.187 3.451 2.33-1.282-4.305.264-.208 3.326-2.623-4.524-.064z"/><g><path fill="#DBDBDB" d="M61.747 4.913l-.347.004-4.18.06 3.592 2.831-.097.322-1.186 3.983 3.728-2.516.276.185 3.45 2.33-1.28-4.304.263-.208 3.326-2.623-4.525-.064-1.51-4.34z"/><path stroke="#CACACA" stroke-linecap="round" stroke-linejoin="round" d="M63.257.573l-1.51 4.34-.347.005-4.179.059 3.59 2.831-.096.322-1.185 3.982 3.727-2.516.277.187 3.45 2.33-1.282-4.305.265-.208 3.326-2.623-4.525-.064z"/></g></g></svg><svg width="78" height="21" viewBox="-4 -4 78 21" id="icon_fivestar_70x13_red" x="114" y="115" xmlns="http://www.w3.org/2000/svg"><g fill="none" fill-rule="evenodd"><path fill="#FF5356" d="M4.99 4.913l-.347.004-4.179.06 3.591 2.831-.097.322-1.185 3.983L6.5 9.597l.277.185 3.45 2.33-1.281-4.304.263-.208 3.327-2.623-4.525-.064L6.5.573z"/><path stroke="#F43435" stroke-linecap="round" stroke-linejoin="round" d="M6.5.573l-1.51 4.34-.347.005-4.179.059 3.59 2.831-.095.322-1.186 3.982L6.5 9.596l.277.187 3.45 2.33-1.282-4.305.265-.208 3.326-2.623-4.525-.064z"/><path fill="#FF5356" d="M33.368 4.913l-.347.004-4.178.06 3.59 2.831-.096.322-1.186 3.983 3.727-2.516.277.185 3.45 2.33-1.28-4.304.263-.208 3.326-2.623-4.525-.064-1.51-4.34z"/><path stroke="#F43435" stroke-linecap="round" stroke-linejoin="round" d="M34.879.573l-1.511 4.34-.347.005-4.178.059 3.59 2.831-.096.322-1.186 3.982 3.728-2.516.276.187 3.45 2.33-1.282-4.305.265-.208 3.326-2.623-4.525-.064z"/><path fill="#FF5356" d="M19.18 4.913l-.348.004-4.179.06 3.591 2.831-.096.322-1.186 3.983 3.727-2.516.277.185 3.45 2.33-1.281-4.304.264-.208 3.326-2.623-4.525-.064-1.51-4.34z"/><path stroke="#F43435" stroke-linecap="round" stroke-linejoin="round" d="M20.69.573l-1.511 4.34-.347.005-4.178.059 3.59 2.831-.096.322-1.186 3.982 3.727-2.516.277.187 3.45 2.33-1.282-4.305.265-.208 3.326-2.623-4.525-.064z"/><path fill="#FF5356" d="M47.558 4.913l-.348.004-4.178.06 3.59 2.831-.096.322-1.186 3.983 3.727-2.516.277.185 3.45 2.33-1.28-4.304.263-.208 3.326-2.623-4.525-.064-1.51-4.34z"/><path stroke="#F43435" stroke-linecap="round" stroke-linejoin="round" d="M49.068.573l-1.511 4.34-.346.005-4.179.059 3.59 2.831-.096.322-1.186 3.982 3.728-2.516.276.187 3.451 2.33-1.282-4.305.264-.208 3.326-2.623-4.524-.064z"/><g><path fill="#FF5356" d="M61.747 4.913l-.347.004-4.18.06 3.592 2.831-.097.322-1.186 3.983 3.728-2.516.276.185 3.45 2.33-1.28-4.304.263-.208 3.326-2.623-4.525-.064-1.51-4.34z"/><path stroke="#F43435" stroke-linecap="round" stroke-linejoin="round" d="M63.257.573l-1.51 4.34-.347.005-4.179.059 3.59 2.831-.096.322-1.185 3.982 3.727-2.516.277.187 3.45 2.33-1.282-4.305.265-.208 3.326-2.623-4.525-.064z"/></g></g></svg><svg width="60" height="68" viewBox="-4 -4 60 68" id="icon_flag_52x60_ashblue" x="243" y="62" xmlns="http://www.w3.org/2000/svg"><path fill="#78869f" fill-rule="evenodd" d="M0 0v60l25.975-9.889L52 60V0z"/></svg><svg width="60" height="68" viewBox="-4 -4 60 68" id="icon_flag_52x60_darkgray" y="184" xmlns="http://www.w3.org/2000/svg"><path fill="#5b5b5b" fill-rule="evenodd" d="M0 0v60l25.975-9.889L52 60V0z"/></svg><svg width="23" height="25" viewBox="-4 -4 23 25" id="icon_medal_15x17_bronze" x="180" y="142" xmlns="http://www.w3.org/2000/svg"><defs><linearGradient id="ala" x1="32.887%" x2="82.388%" y1="28.725%" y2="84.964%"><stop offset="0%" stop-color="#DCB78B"/><stop offset="100%" stop-color="#D5AA79"/></linearGradient></defs><g fill="none" fill-rule="evenodd"><path fill="#B57F64" d="M15 0H9.104L8 2.642l.133.317c1.822.107 3.48.855 4.777 2.041L15 0zM5.79 0H0l2.053 5C3.387 3.758 5.11 2.992 7 2.945L5.79 0z"/><path fill="url(#ala)" d="M15 9.5a7.5 7.5 0 11-15 0 7.5 7.5 0 0115 0"/><path fill="#FFF" d="M12 9.5a4.5 4.5 0 11-9 0 4.5 4.5 0 019 0"/><path fill="#DBB488" d="M7.5 5.196l-.95 2.836H3.403L6.012 9.7l-1.66 2.982 3.148-1.66 3.044 1.66L8.97 9.7l2.697-1.667H8.373z"/></g></svg><svg width="23" height="25" viewBox="-4 -4 23 25" id="icon_medal_15x17_gold" x="203" y="142" xmlns="http://www.w3.org/2000/svg"><defs><linearGradient id="ama" x1="18.625%" x2="82.388%" y1="12.521%" y2="84.964%"><stop offset="22.367%" stop-color="#F9CD0C"/><stop offset="100%" stop-color="#F8B605"/></linearGradient></defs><g fill="none" fill-rule="evenodd"><path fill="#E29000" d="M15 0H9.104L8 2.642l.133.317c1.822.107 3.48.855 4.777 2.041L15 0zM5.79 0H0l2.053 5C3.387 3.758 5.11 2.992 7 2.945L5.79 0z"/><path fill="url(#ama)" d="M15 9.5a7.5 7.5 0 11-15 0 7.5 7.5 0 0115 0"/><path fill="#FFF" d="M12 9.5a4.5 4.5 0 11-9 0 4.5 4.5 0 019 0"/><path fill="#F8B204" d="M7.5 5.196l-.95 2.836H3.403L6.012 9.7l-1.66 2.982 3.148-1.66 3.044 1.66L8.97 9.7l2.697-1.667H8.373z"/></g></svg><svg width="23" height="25" viewBox="-4 -4 23 25" id="icon_medal_15x17_silver" x="107" y="184" xmlns="http://www.w3.org/2000/svg"><defs><linearGradient id="ana" x1="32.887%" x2="82.388%" y1="28.725%" y2="84.964%"><stop offset="0%" stop-color="#A9B6BD"/><stop offset="100%" stop-color="#9FAFB7"/></linearGradient></defs><g fill="none" fill-rule="evenodd"><path fill="#8394A1" d="M15 0H9.104L8 2.642l.133.317c1.822.107 3.48.855 4.777 2.041L15 0zM5.79 0H0l2.053 5C3.387 3.758 5.11 2.992 7 2.945L5.79 0z"/><path fill="url(#ana)" d="M15 9.5a7.5 7.5 0 11-15 0 7.5 7.5 0 0115 0"/><path fill="#FFF" d="M12 9.5a4.5 4.5 0 11-9 0 4.5 4.5 0 019 0"/><path fill="#9EAEB6" d="M7.5 5.196l-.95 2.836H3.403L6.012 9.7l-1.66 2.982 3.148-1.66 3.044 1.66L8.97 9.7l2.697-1.667H8.373z"/></g></svg><svg width="23" height="26" viewBox="-4 -4 23 26" id="icon_medal_15x18_platinum" x="157" y="142" xmlns="http://www.w3.org/2000/svg"><g fill="none" fill-rule="evenodd"><path fill="#4791BA" d="M15 0H9.104L8 2.642l.133.317c1.822.107 3.48.855 4.777 2.041L15 0zM5.79 0H0l2.053 5C3.387 3.758 5.11 2.992 7 2.945L5.79 0z"/><path fill="#5FB0D8" fill-rule="nonzero" d="M0 5.27v8.534l7.619 4.267L15 13.804V5.269L7.619 1.002z"/><path fill="#FFF" fill-rule="nonzero" d="M3 6.809v5.355L7.61 15 12 12.164V6.81L7.61 4z"/><path fill="#5FB0D8" d="M7.5 5.196l-.95 2.836H3.403L6.012 9.7l-1.66 2.982 3.148-1.66 3.044 1.66L8.97 9.7l2.697-1.667H8.373z"/></g></svg><svg width="109" height="42" viewBox="-4 -4 109 42" id="icon_more_101x34_black" y="142" xmlns="http://www.w3.org/2000/svg"><g fill="none" fill-rule="evenodd"><rect width="101" height="34" fill="#000" rx="2"/><path fill="#FFF" fill-rule="nonzero" d="M32.352 22h-1.97v-7.134h-.059L27.453 22H26.06l-2.872-7.134h-.058V22h-1.97V11.431h2.563l3.003 7.588h.059l3.003-7.588h2.563V22zm6.526-10.752c3.127 0 5.098 2.102 5.098 5.471 0 3.362-1.97 5.464-5.098 5.464-3.135 0-5.098-2.102-5.098-5.464 0-3.369 1.963-5.471 5.098-5.471zm0 1.846c-1.729 0-2.842 1.406-2.842 3.625 0 2.212 1.106 3.611 2.842 3.611 1.728 0 2.834-1.399 2.834-3.61 0-2.22-1.106-3.626-2.834-3.626zm8.73.066v3.369h1.905c1.113 0 1.765-.637 1.765-1.685 0-1.025-.689-1.684-1.787-1.684h-1.883zm0 4.973V22h-2.212V11.431h4.33c2.43 0 3.822 1.282 3.822 3.37 0 1.354-.703 2.526-1.919 3.002L53.856 22h-2.505l-1.97-3.867h-1.773zM62 20.169V22h-7V11.431h7v1.824h-4.79v2.549h4.52v1.699h-4.52v2.666H62z"/><path fill="#FFF" d="M81 14l-5.5 6-5.5-6z"/></g></svg><svg width="47" height="47" viewBox="-4 -4 47 47" id="icon_movie_39x39" x="60" y="184" xmlns="http://www.w3.org/2000/svg"><defs><filter id="aqa" width="133.3%" height="133.3%" x="-16.7%" y="-10.6%" filterUnits="objectBoundingBox"><feOffset dy="2" in="SourceAlpha" result="shadowOffsetOuter1"/><feGaussianBlur in="shadowOffsetOuter1" result="shadowBlurOuter1" stdDeviation="1.5"/><feComposite in="shadowBlurOuter1" in2="SourceAlpha" operator="out" result="shadowBlurOuter1"/><feColorMatrix in="shadowBlurOuter1" values="0 0 0 0 0 0 0 0 0 0 0 0 0 0 0 0 0 0 0.2 0"/></filter><path id="aqb" d="M33 16.5C33 25.612 25.613 33 16.5 33S0 25.612 0 16.5C0 7.387 7.387 0 16.5 0S33 7.387 33 16.5"/></defs><g fill="none" fill-rule="evenodd"><g transform="translate(3 1)"><use fill="#000" filter="url(#aqa)" xlink:href="#aqb"/><use fill="#FFF" fill-opacity="0" xlink:href="#aqb"/></g><path fill="#FFF" d="M36 17.5C36 26.612 28.613 34 19.5 34S3 26.612 3 17.5C3 8.387 10.387 1 19.5 1S36 8.387 36 17.5" opacity=".9"/><path fill="#242424" d="M26.844 16.151l-10.368-5.848a1.585 1.585 0 00-1.55.001 1.556 1.556 0 00-.792 1.35v11.693c0 .555.304 1.073.792 1.349a1.577 1.577 0 001.554-.002l10.362-5.844c.49-.277.792-.794.792-1.35s-.302-1.073-.79-1.349"/></g></svg><svg width="116" height="90" viewBox="-4 -4 116 90" id="icon_npay_point_108x82" x="127" xmlns="http://www.w3.org/2000/svg"><defs><path id="ara" d="M.613 4.029l.808 3.856-1.107.928-.16 2.548-.042.676 5.324-1.016s3.329-3.754 1.256-5.245C4.619 4.286 4.886.022 4.886.022L.613 4.029z"/><path id="arc" d="M1.954.791C.525 1.575-.176 2.948.107 6.662c.29 3.788 2.412 6.859 3.263 6.839 2.51-.06 5.71-2.99 5.302-5.214-.569-3.098-.784-6.425-1.991-7.313C5.993.467 5.206.12 4.284.12c-.695 0-1.467.196-2.33.67z"/><path id="are" d="M1.66.157C1.768.936.262 5.201.067 5.827l2.341 6.9S6.82 7.993 5.214 5.584l-1-.01.55-3.235S2.255.026 1.747.027c-.067 0-.1.04-.087.13z"/><path id="arg" d="M.367 2.753C-.44 3.99.975 6.556 1.499 9.609c.377 2.193 3.999 3.93 6.317 3.115.786-.277 1.42-4.524.885-7.04C7.941 2.103 6.12.308 4.546.081a3.62 3.62 0 00-.518-.038c-1.88 0-2.922 1.573-3.661 2.71"/><path id="ari" d="M7.58.057H5.914l-.624 3.58-5.202.738C2.916 7.237 7.02 7.14 7.527 7.116c.507.024 4.612.12 7.438-2.74l-5.201-.738L9.139.057H7.58z"/><path id="ark" d="M.08 4.004c0 .737.313 3.37.937 5.37.36 1.155 1.412 1.853 2.237 2.238a2.586 2.586 0 002.183 0c.826-.385 1.878-1.083 2.238-2.237.624-2.001.936-4.634.936-5.371C8.61 1.897 6.322.107 4.346.107 2.369.107.08 1.897.08 4.004"/><path id="arm" d="M5.64.109L.121 5.795A5.352 5.352 0 005.58 8.08"/><path id="aro" d="M5.64.109L.121 5.795A5.352 5.352 0 005.58 8.08"/><path id="arq" d="M5.64.109L.121 5.795A5.352 5.352 0 005.58 8.08"/><path id="ars" d="M5.64.109L.121 5.795A5.352 5.352 0 005.58 8.08L5.639.11z"/><path id="arv" d="M11 29h76a2 2 0 012 2v43a2 2 0 01-2 2H11a2 2 0 01-2-2V31a2 2 0 012-2zm9.198 14.793c1.199 0 2.023-.06 2.389-.119.247-.042.332-.264.306-.518-.026-.255-.178-.434-.434-.4-.543.077-1.258.11-1.691.11-.145 0-.195-.05-.195-.195v-3.315c0-.315-.264-.459-.553-.459-.28 0-.544.145-.544.459v3.731c0 .536.178.706.723.706zm4.828 1.556c0 .289.247.425.502.425s.502-.136.502-.425v-6.58c0-.288-.247-.425-.502-.425s-.502.136-.502.425v6.58zm-1.598-.357c0 .289.247.425.502.425.247 0 .493-.136.493-.425v-6.137c0-.29-.246-.425-.493-.425-.255 0-.502.136-.502.425v1.768h-1.181c-.264 0-.383.212-.383.467 0 .246.12.459.383.459h1.181v3.443zm3.303-3.63c0 1.674.688 2.584 2.048 2.584s2.049-.91 2.049-2.584c0-1.675-.689-2.584-2.049-2.584-1.36 0-2.048.91-2.048 2.584zm3.051 0c0 1.071-.263 1.64-1.003 1.64-.74 0-1.003-.569-1.003-1.64s.264-1.64 1.003-1.64c.74 0 1.003.569 1.003 1.64zm3.205-2.559c0-.314-.264-.459-.553-.459-.28 0-.544.145-.544.46v6.51c0 .315.264.46.544.46.29 0 .553-.145.553-.46v-6.51zm6.175 6.512c0 .314.264.459.544.459.272 0 .535-.145.535-.46v-6.51c0-.315-.263-.46-.535-.46-.28 0-.544.145-.544.46v2.099h-1.377v-1.606c0-.306-.263-.451-.535-.451-.273 0-.536.145-.536.45v1.318h-1.598v-1.317c0-.306-.264-.451-.535-.451-.273 0-.536.145-.536.45v3.825c0 .536.178.706.722.706h2.295c.544 0 .723-.17.723-.706v-1.3h1.377v3.494zm-3.85-2.398c-.145 0-.196-.05-.196-.195v-1.199h1.598v1.199c0 .145-.051.195-.195.195h-1.207zm5.588-3.476c0 .23.12.442.383.442h.255v3.06h-.306c-.264 0-.383.213-.383.442 0 .23.12.442.383.442 1.41 0 2.252 0 3.272-.119.23-.026.332-.264.306-.502-.025-.229-.178-.408-.433-.373-.094.017-.187.025-.28.034v-2.984h.212c.263 0 .382-.213.382-.442 0-.23-.119-.442-.382-.442h-3.026c-.264 0-.383.212-.383.442zm1.598.442h.638v3.043c-.213.017-.425.017-.638.017v-3.06zm4.148 5.465c0 .29.247.425.493.425.255 0 .502-.136.502-.425V38.77c0-.29-.247-.426-.502-.426-.246 0-.493.136-.493.425v6.58zm-1.47-.356c0 .289.246.425.493.425.246 0 .493-.136.493-.425v-6.137c0-.29-.247-.425-.493-.425-.247 0-.493.136-.493.425v2.031h-.391c-.264 0-.383.212-.383.467 0 .247.12.46.383.46h.39v3.178zm3.166-3.63c0 1.674.689 2.584 2.049 2.584 1.36 0 2.048-.91 2.048-2.584 0-1.675-.688-2.584-2.048-2.584s-2.049.91-2.049 2.584zm3.052 0c0 1.071-.264 1.64-1.003 1.64-.74 0-1.003-.569-1.003-1.64s.263-1.64 1.003-1.64c.739 0 1.003.569 1.003 1.64zm3.204-2.559c0-.314-.264-.459-.553-.459-.28 0-.544.145-.544.46v6.51c0 .315.264.46.544.46.29 0 .553-.145.553-.46v-6.51zm9.095 6.274c.264 0 .383-.213.383-.46 0-.246-.12-.459-.383-.459h-2.669v-1.385h1.963c.255 0 .374-.204.374-.45 0-.247-.118-.451-.373-.451h-.723v-2.117h.688c.255 0 .374-.204.374-.45 0-.246-.118-.45-.373-.45h-4.947c-.255 0-.374.204-.374.45 0 .246.118.45.373.45h.689v2.117h-.723c-.255 0-.373.204-.373.45 0 .247.119.451.373.451h1.964v1.385h-2.669c-.264 0-.383.213-.383.46 0 .246.12.459.383.459h6.426zm-3.944-5.322h1.462v2.117h-1.462v-2.117zm4.594.995c0 1.164.689 2.023 2.04 2.023 1.352 0 2.04-.859 2.04-2.023 0-1.164-.688-2.023-2.04-2.023-1.351 0-2.04.859-2.04 2.023zm3.043 0c0 .612-.272 1.114-1.003 1.114-.73 0-1.003-.502-1.003-1.114 0-.612.272-1.114 1.003-1.114.731 0 1.003.502 1.003 1.114zm3.213-1.947c0-.314-.263-.459-.544-.459-.28 0-.544.145-.544.46v4.878c0 .315.264.46.544.46s.544-.145.544-.46v-4.879zm-.195 7.361c.263 0 .382-.212.382-.459 0-.255-.119-.467-.382-.467h-3.63c-.144 0-.195-.051-.195-.196v-1.19c0-.314-.264-.458-.544-.458-.29 0-.553.144-.553.459v1.606c0 .535.179.705.723.705h4.199zm2.868-6.23c0-.145.051-.195.196-.195h3.689c.264 0 .383-.213.383-.46 0-.246-.12-.459-.383-.459h-4.224c-.545 0-.723.17-.723.706v2.864c0 .536.178.706.723.706h4.351c.264 0 .383-.212.383-.459 0-.246-.119-.459-.383-.459h-3.816c-.145 0-.196-.051-.196-.195v-.587h3.8c.263 0 .382-.212.382-.442s-.118-.442-.382-.442h-3.8v-.578zm4.828 5.143c.264 0 .383-.213.383-.46 0-.255-.119-.467-.383-.467h-6.425c-.264 0-.383.212-.383.468 0 .246.119.459.382.459H78.1z"/><filter id="aru" width="117.5%" height="129.8%" x="-8.7%" y="-10.6%" filterUnits="objectBoundingBox"><feOffset dy="2" in="SourceAlpha" result="shadowOffsetOuter1"/><feGaussianBlur in="shadowOffsetOuter1" result="shadowBlurOuter1" stdDeviation="2"/><feColorMatrix in="shadowBlurOuter1" values="0 0 0 0 0 0 0 0 0 0 0 0 0 0 0 0 0 0 0.247514205 0"/></filter><filter id="arx" width="130.8%" height="150%" x="-23.1%" y="-25%" filterUnits="objectBoundingBox"><feOffset dx="-1" in="SourceAlpha" result="shadowOffsetOuter1"/><feGaussianBlur in="shadowOffsetOuter1" result="shadowBlurOuter1" stdDeviation=".5"/><feColorMatrix in="shadowBlurOuter1" values="0 0 0 0 0 0 0 0 0 0 0 0 0 0 0 0 0 0 0.5 0"/></filter><filter id="arz" width="121.4%" height="400%" x="-10.7%" y="-150%" filterUnits="objectBoundingBox"><feOffset in="SourceAlpha" result="shadowOffsetOuter1"/><feGaussianBlur in="shadowOffsetOuter1" result="shadowBlurOuter1" stdDeviation=".5"/><feColorMatrix in="shadowBlurOuter1" values="0 0 0 0 0 0 0 0 0 0 0 0 0 0 0 0 0 0 0.5 0"/></filter><filter id="arB" width="115.8%" height="400%" x="-7.9%" y="-150%" filterUnits="objectBoundingBox"><feOffset in="SourceAlpha" result="shadowOffsetOuter1"/><feGaussianBlur in="shadowOffsetOuter1" result="shadowBlurOuter1" stdDeviation=".5"/><feColorMatrix in="shadowBlurOuter1" values="0 0 0 0 0 0 0 0 0 0 0 0 0 0 0 0 0 0 0.5 0"/></filter><rect id="ary" width="13" height="8" x="78" y="69" rx="1"/><rect id="arA" width="14" height="1" x="78" y="77" rx=".5"/><rect id="arC" width="19" height="1" x="88" y="75" rx=".5"/><rect id="arD" width="14" height="9" rx="1"/><linearGradient id="arw" x1="50%" x2="50%" y1="0%" y2="100%"><stop offset="0%" stop-color="#FFF"/><stop offset="100%" stop-color="#EEE6E6"/></linearGradient></defs><g fill="none" fill-rule="evenodd"><path fill="#FCE530" d="M97 54H83a1 1 0 00-1 1v19a1 1 0 001 1h15V55a1 1 0 00-1-1zm9 6h-8v15h8a1 1 0 001-1V61a1 1 0 00-1-1z"/><path fill="#FED100" d="M107 69.5H82v1h25z"/><path fill="#FEC500" d="M107 70H82v1h25z"/><path fill="#FED100" d="M107 64H82v1h25z"/><path fill="#FEC500" d="M107 64.5H82v1h25z"/><path fill="#FED100" d="M98 59H82v1h16z"/><path fill="#FEC500" d="M98 59.5H82v1h16z"/><path fill="#FFC500" d="M97 54h-4v21h5V55a1 1 0 00-1-1z" opacity=".435"/><path fill="#FFC500" d="M106 60h-4v15h4a1 1 0 001-1V61a1 1 0 00-1-1z" opacity=".3"/><path fill="#000" d="M11 29h76a2 2 0 012 2v44a2 2 0 01-2 2H11a2 2 0 01-2-2V31a2 2 0 012-2z" opacity=".1"/><path fill="#9560D9" d="M65.404 3.958L72.582.683l-2.908 7.408a5.41 5.41 0 01-4.27-4.133"/><path fill="#9560D9" d="M69.674 8.091L72.582.683l-.046.021-4.846 6.577a5.338 5.338 0 001.984.81" opacity=".14" style="mix-blend-mode:multiply"/><path fill="#F4B132" d="M69.312 21.745a2.968 2.968 0 01-.21 4.036c-2.999 2.9-9.471 8.092-12.983 8.959-3.089.762-14.062-3.964-14.422-4.134-.228-.107-.072-1.146.073-1.893a.938.938 0 01.926-.764c2.203.02 8.62.133 11.711.804a.929.929 0 001-.445c.862-1.485 3.929-4.956 7.947-7.46 2.965-1.849 4.632-.672 5.958.897"/><path fill="#DB7963" d="M50.047 20.826c.91.652 2.392 1.501 2.186 1.833-.205.332-1.943-.594-2.043-.639-.1-.045.988 1.133 1.055 1.526.066.394-1.898-.855-2.01-1.147-.11-.292 1.004 1.67.67 1.883-.333.213-1.397-1.181-1.397-1.181l-.405-.849.634-1.168 1.382-.286"/><path fill="#EA8B71" d="M48.106 23.887c.336.099.834-.006 1.103-.408.827-1.239 1.945-1.35 1.774-1.575-.417-.55-2.275.496-2.358.608-.084.111.658-.939.839-1.064.18-.125 4.177.69 4.348.139.035-.113-4.516-1.639-5.251-1.236-.735.403-2.28 2.687-3.258 3.804-.29.332.2 2.025.2 2.025l1.356-.171 1.247-2.122z"/><path fill="#2E3A5B" d="M31.701 21.11c1.34 1.306 4.438 4.549 7.907 9.692 0 0 3.296-5.407 6.864-8.468 0 0 1.853.122 2.192 1.854 0 0-4.278 10.722-7.913 12.354-2.228 1-10.65-8.425-11.002-9.272-.266-.638.577-4.179 1.01-5.89a.563.563 0 01.942-.27"/><path fill="#9560D9" d="M54.706 20.799c.667 1.697 2.126 5.819 3.16 11.77 0 0 5.05-3.444 9.414-4.706 0 0 1.59.858 1.205 2.528 0 0-8.019 7.745-11.877 7.715-2.364-.018-6.085-11.76-6.062-12.652.017-.671 2.162-3.46 3.221-4.798a.546.546 0 01.939.143zm-15.29.043a.546.546 0 01.938-.143c1.06 1.338 3.204 4.127 3.222 4.798.023.892-3.699 12.634-6.063 12.653-3.858.03-11.877-7.716-11.877-7.716-.384-1.67 1.206-2.527 1.206-2.527 4.364 1.26 9.414 4.705 9.414 4.705 1.034-5.95 2.492-10.073 3.16-11.77z"/><path fill="#9560D9" d="M53.953 28.184c2.13-3.165.426-7.736.426-7.736h-7.242l-7.3.04s-1.563 4.531.567 7.696c1.461 2.171.032 6.66-1.009 9.264h15.698c-1.092-2.605-2.6-7.093-1.14-9.264"/><path fill="#FCD1C3" d="M68.114 12.528s-.266 4.264 1.806 5.755c2.073 1.49-1.256 5.245-1.256 5.245l-5.324 1.016.043-.676.16-2.548 1.106-.929-.808-3.856 4.273-4.007z"/><g opacity=".289" transform="translate(63.228 12.506)"><mask id="arb" fill="#fff"><use xlink:href="#ara"/></mask><path fill="#F96662" d="M-.152 8.275c.884-.107 3.94-.414 4.233-5.057.293-4.642-7.423 3.286-7.423 3.286l3.19 1.771z" mask="url(#arb)"/></g><path fill="#FCD1C3" d="M61.338 6.856c-1.428.784-2.13 2.157-1.846 5.87.289 3.79 2.412 6.86 3.263 6.84 2.509-.06 5.71-2.99 5.302-5.214-.57-3.098-.785-6.425-1.992-7.313-1.206-.889-2.718-1.285-4.727-.183"/><g opacity=".155" transform="translate(59.384 6.065)"><mask id="ard" fill="#fff"><use xlink:href="#arc"/></mask><path fill="#F96662" d="M-1.862 4.316S3.46 7.118 5.796 3.255C7.91-.243-2.36.12-2.36.12l.497 4.196z" mask="url(#ard)"/></g><path fill="#2E3A5B" d="M69.295 7.438a3.642 3.642 0 00-.918-.837c.174-.73-.741-1.505-1.245-1.87a5.627 5.627 0 00-2.447-.999c-.907-.136-1.877-.095-2.629.487-.322.249-.615.55-.985.728-.448.214-.92.137-1.393.076-.455-.059-.901-.065-1.305.185a1.89 1.89 0 00-.74.906c-.347.864-.641 3.824 3.147 4.512h.007c1.163.25 2.885-.076 4.393-1.306 0 0-.386 4.041 1.763 4.03.523-.002.053 1.89 1.359 1.81 0 0 .007-.621.584-1.579.954-1.585 2.212-3.711.41-6.143"/><path fill="#FCD1C3" d="M66.175 14.334c.538.141 2.046-.145 2.266-1.677.22-1.533-1.664-1.573-2.135-.182-.47 1.391-.131 1.86-.131 1.86"/><path fill="#F4B132" d="M60.003 37.753h17.294c.497-5.076.757-15.42-4.588-19.975-.134-.114-1.273.17-2.694.585-.59 2.09-2.764 4.592-4.98 4.323-1.813-.22-.968-1.702-.423-2.61-.484.162-.78.263-.78.263-1.296.35-3.33 1.727-2.845 5.105.458 3.191-.322 11.039-.984 12.309"/><path fill="#F4B132" d="M77.876 32.29a.948.948 0 01.489.99c-.32 1.983-.358 5.284-.32 8.017h4.367c1.11-3.605 2.304-8.237 1.774-10.044-1.028-3.509-6.469-9.797-9.478-12.686a2.88 2.88 0 00-3.993-.014c-1.482 1.419-2.56 3.163-.591 6.069 2.67 3.94 6.245 6.87 7.752 7.668M27.743 7.193s1.426 12.278-3.192 11.081c-4.619-1.197-6.519-5.546-4.619-9.2 1.9-3.652 6.295-2.544 7.811-1.88"/><path fill="#FCD1C3" d="M23.53 21.018c.194-.627 1.7-4.892 1.592-5.67-.107-.78 3.104 2.182 3.104 2.182l-.55 3.236 1 .01c1.606 2.409-2.806 7.14-2.806 7.14l-2.34-6.898z"/><path fill="#2E3A5B" d="M20.326 34.284c-.143.472-.73 2.091-1.235 3.465h13.966c-.355-2.194-.827-5.716-.351-6.55 0 0 1.4-1.819 1.458-2.272.24-1.885-1.749-2.584-1.977-3.646-.229-1.063.146-4.117-.862-4.424-.372-.113-.9-.13-2.648-.086-.083.656-.51 3.22-2.155 2.906-1.588-.302-2.687-2.138-2.992-2.705-.92.044-2.503.094-2.503.094-1.682.104-4.052 3.933-2.719 6.797 1.334 2.865 2.28 5.555 2.018 6.42"/><path fill="#2E3A5B" d="M17.66 41.297c-.662-2.127-1.233-3.75-1.233-3.75s5.016-6.903 6.316-10.42c0 0 2.155-5.64-1.958-5.845-2.576-.129-8.887 13.762-9.342 15.342-.164.57.437 2.474 1.273 4.673h4.944z"/><g transform="translate(23.462 15.19)"><mask id="arf" fill="#fff"><use xlink:href="#are"/></mask><path fill="#DB7963" d="M5.857-2.302s-6.382 5.47-1.643 7.877l1.362-5.77.281-2.107z" mask="url(#arf)" opacity=".296"/></g><path fill="#FCD1C3" d="M26.682 6.817c1.573.226 3.395 2.021 4.156 5.603.534 2.516-.1 6.763-.886 7.04-2.318.815-5.94-.923-6.316-3.115-.525-3.053-1.938-5.619-1.133-6.856.805-1.238 1.967-2.991 4.18-2.672"/><g transform="translate(22.137 6.736)"><mask id="arh" fill="#fff"><use xlink:href="#arg"/></mask><path fill="#DB7963" d="M1.856 7.22S7.286 4.865 6.34.042C5.618-3.63 1.856 7.219 1.856 7.219" mask="url(#arh)" opacity=".127"/></g><path fill="#F4B132" d="M28.223 7.34s-2.936-1.4-4.49-.525c-1.555.874-1.9 1.924-1.9 1.924s-1.319 4.243.112 5.289l-.063.047s2.52 4.023 2.541 3.932a6.202 6.202 0 00-.43-4.052c3.913-1.539 4.23-6.615 4.23-6.615"/><path fill="#FCD1C3" d="M24.558 15.092c-.55.144-2.091-.149-2.316-1.714-.224-1.566 1.7-1.607 2.182-.186.481 1.421.134 1.9.134 1.9"/><path fill="#9560D9" d="M20.2 8.826l.103-7.97 5.402 5.8a5.35 5.35 0 01-5.504 2.17"/><path fill="#9560D9" d="M20.2 8.826a5.29 5.29 0 001.853.068l-1.751-7.9-.101 7.832z" opacity=".334" style="mix-blend-mode:multiply"/><path fill="#F4B132" d="M13.369 11.187c0 5.77-2.02 6.344-3.499 6.614-2.027.37-4.133.417-6.063 1.145C1.877 19.675.08 21.33 0 23.414c.444-.725 1.838-1.547 2.66-1.735 5.355-1.224 6.046 2.448 10.19 1.399 3.168-.802 4.837-3.847 4.837-6.82 0-2.963-.699-4.835.984-5.262.7-.178 1.473.355 2.146.031.661-.317.596-1.696.261-2.184-3.91-5.7-7.71-2.028-7.71 2.344"/><path fill="#2E3A5B" d="M52.752 21.329H41.236v-9.734c0-3.22 2.578-5.83 5.758-5.83s5.758 2.61 5.758 5.83v9.734z"/><path fill="#D57C60" d="M54.35 20.434l-5.085-.666-.624-3.58h-3.225l-.624 3.58-5.047.715a.078.078 0 00-.043.133c2.822 2.748 6.826 2.653 7.326 2.63.5.023 4.544.07 7.366-2.68a.078.078 0 00-.043-.132"/><g transform="translate(39.501 16.13)"><mask id="arj" fill="#fff"><use xlink:href="#ari"/></mask><path fill="#C96A54" d="M5.239.584s.624 3.054 5.2 2.527c3.418-.393-.311-3.265-.311-3.265l-4.89.738z" mask="url(#arj)"/></g><path fill="#D57C60" d="M47.028 6.708c-1.976 0-4.265 1.79-4.265 3.897 0 .737.312 3.37.936 5.371.36 1.154 1.412 1.853 2.238 2.237a2.584 2.584 0 002.182 0c.826-.384 1.878-1.083 2.238-2.237.624-2 .936-4.634.936-5.37 0-2.107-2.288-3.898-4.265-3.898"/><g transform="translate(42.682 6.602)"><mask id="arl" fill="#fff"><use xlink:href="#ark"/></mask><path fill="#C96A54" d="M2.209 1.05s2.365 6.513 6.154 5.253c3.933-1.309-6.154-5.254-6.154-5.254" mask="url(#arl)"/></g><g><path fill="#2E3A5B" d="M44.662 6.99s1.795 6.223 6.39 5.596c1.345-.184.174-4.197.174-4.197l-2.937-1.924-3.627.525z"/><path fill="#2E3A5B" d="M46.123 6.779S43.556 9.074 42.9 12.14c-.656 3.068.035-4.102.035-4.102l3.188-1.26z"/><path fill="#D57C60" d="M43.773 14.406c-.443.152-1.727.007-2.006-1.266-.28-1.273 1.306-1.332 1.7-.16.442 1.317.306 1.426.306 1.426m6.511 0c.443.152 1.727.007 2.006-1.266.279-1.273-1.306-1.332-1.7-.16-.442 1.317-.306 1.426-.306 1.426"/><path fill="#F4B132" d="M46.118 5.82L51.636.135l-.059 7.972a5.352 5.352 0 01-5.46-2.285"/></g><g><g transform="translate(45.996 .026)"><mask id="arn" fill="#fff"><use xlink:href="#arm"/></mask><path fill="#FFCF83" d="M4.037 5.027c-2.687 0-4.364-1.323-4.459-1.4l.707-.899c.11.088 2.742 2.129 6.71.554l.415 1.07c-1.243.493-2.377.675-3.373.675" mask="url(#arn)"/></g><g transform="translate(45.996 .026)"><mask id="arp" fill="#fff"><use xlink:href="#aro"/></mask><path fill="#FFCF83" d="M4.612 2.628c-2.688 0-4.365-1.323-4.46-1.4l.71-.897L.506.78.86.33c.11.087 2.742 2.128 6.71.553l.414 1.07c-1.243.493-2.377.675-3.372.675" mask="url(#arp)"/></g><g transform="translate(45.996 .026)"><mask id="arr" fill="#fff"><use xlink:href="#arq"/></mask><path fill="#FFCF83" d="M3.46 7.44C.772 7.44-.905 6.118-1 6.04l.71-.897-.355.449.353-.45c.11.087 2.741 2.128 6.71.553l.414 1.07c-1.243.494-2.377.675-3.372.675" mask="url(#arr)"/></g><g transform="translate(45.996 .026)"><mask id="art" fill="#fff"><use xlink:href="#ars"/></mask><path fill="#F4B132" fill-opacity=".338" d="M5.64.109L3.932 9.565l3.69-.79z" mask="url(#art)" style="mix-blend-mode:multiply"/></g></g><g><use fill="#000" filter="url(#aru)" xlink:href="#arv"/><use fill="url(#arw)" xlink:href="#arv"/></g><g fill="#000" opacity=".296"><use filter="url(#arx)" xlink:href="#ary"/><use xlink:href="#ary"/></g><g fill="#000" opacity=".163"><use filter="url(#arz)" xlink:href="#arA"/><use xlink:href="#arA"/></g><g fill="#000" opacity=".187"><use filter="url(#arB)" xlink:href="#arC"/><use xlink:href="#arC"/></g><g transform="translate(78 68)"><mask id="arE" fill="#fff"><use xlink:href="#arD"/></mask><use fill="#FFE51D" xlink:href="#arD"/><path fill="#FFC500" d="M8 0h10v10H8z" mask="url(#arE)" opacity=".397"/><path fill="#FED100" d="M0 4h15v1H0z" mask="url(#arE)"/><path fill="#FEC500" d="M0 4.5h15v1H0z" mask="url(#arE)"/></g></g></svg><svg width="25" height="25" viewBox="-4 -4 25 25" id="icon_question_15x15_white" x="130" y="184" xmlns="http://www.w3.org/2000/svg"><g fill="none" fill-rule="evenodd" transform="translate(1 1)"><rect width="14.063" height="14.063" x=".469" y=".469" fill="#FFF" stroke="#DDD" rx="7.031"/><path fill="#555" fill-rule="nonzero" d="M5.378 5.933c.045-1.144.825-2.01 2.286-2.01 1.33 0 2.226.79 2.226 1.869 0 .78-.394 1.33-1.058 1.727-.65.382-.836.65-.836 1.168v.307H6.953l-.004-.403c-.026-.71.281-1.162.972-1.576.61-.367.825-.66.825-1.178 0-.57-.447-.987-1.137-.987-.695 0-1.144.418-1.189 1.083H5.378zm2.104 5.393a.647.647 0 01-.659-.65.647.647 0 01.66-.65c.377 0 .665.282.665.65a.645.645 0 01-.666.65z"/></g></svg><svg width="21" height="21" viewBox="-4 -4 21 21" id="icon_question_mark_13x13_gray" x="222" y="184" xmlns="http://www.w3.org/2000/svg"><g fill="none" fill-rule="evenodd"><rect width="12" height="12" x=".5" y=".5" fill="#FCFCFC" stroke="#CECFD1" rx="2"/><path fill="#5E5E5E" d="M7 9v1H6V9h1zm0-2v1H6V7h1zm1-1v1H7V6h1zm1-2v2H8V4h1zM5 4v1H4V4h1zm3-1v1H5V3h3z"/></g></svg><svg width="22" height="22" viewBox="-4 -4 22 22" id="icon_question_mark_14x14_gray" x="179" y="184" xmlns="http://www.w3.org/2000/svg"><g fill="none" fill-rule="evenodd"><circle cx="7" cy="7" r="6.5" stroke="#000" opacity=".2"/><text fill="#000" font-family="SFUIDisplay-Semibold, SF UI Display" font-size="9" font-weight="500"><tspan x="5" y="10">?</tspan></text></g></svg><svg width="24" height="22" viewBox="-4 -4 24 22" id="icon_quotation_mark_left_16x14_black" x="155" y="184" xmlns="http://www.w3.org/2000/svg"><path fill="#444" fill-rule="evenodd" d="M11.928 7.657a3.672 3.672 0 012.807.692C15.578 8.964 16 9.752 16 10.713c0 .884-.35 1.653-1.049 2.307-.7.653-1.522.98-2.468.98s-1.727-.336-2.344-1.01a3.967 3.967 0 01-1.05-2.392c-.164-1.653-.102-3.046.186-4.18s.74-2.182 1.357-3.143c.453-.653 1.06-1.288 1.82-1.903C13.213.757 14.026.334 14.89.104c.453-.116.71-.135.772-.058.061.077.092.327.092.75v.634c0 .461-.03.74-.092.836-.062.096-.32.221-.772.375-.904.307-1.624.884-2.159 1.73-.535.845-.802 1.94-.802 3.286m-9 0a3.672 3.672 0 012.807.692C6.578 8.964 7 9.752 7 10.713c0 .884-.35 1.653-1.049 2.307-.7.653-1.522.98-2.468.98s-1.727-.336-2.344-1.01a3.967 3.967 0 01-1.05-2.392c-.164-1.653-.102-3.046.186-4.18s.74-2.182 1.357-3.143c.453-.653 1.06-1.288 1.82-1.903C4.213.757 5.026.334 5.89.104c.453-.116.71-.135.772-.058.061.077.092.327.092.75v.634c0 .461-.03.74-.092.836-.062.096-.32.221-.772.375-.904.307-1.624.884-2.159 1.73-.535.845-.802 1.94-.802 3.286"/></svg><svg width="19" height="19" viewBox="-4 -4 19 19" id="icon_report_11x11_gray" x="243" y="184" xmlns="http://www.w3.org/2000/svg"><g fill="none" fill-rule="evenodd"><path fill="#9B9B9B" d="M.045 8.442h10.91v2.103H.045V8.442zm1.091-.78h8.728V3.844C9.864 1.738 7.908.026 5.5.026c-2.407 0-4.364 1.711-4.364 3.818v3.818z"/><path stroke="#FFF" stroke-width=".5" d="M3.138 4.025S2.978 1.872 5.45 1.67"/></g></svg><svg width="21" height="22" viewBox="-4 -4 21 22" id="icon_secret_13x14_gray" x="201" y="184" xmlns="http://www.w3.org/2000/svg"><g fill="#AAA" fill-rule="evenodd"><path d="M1 12.99h11v-7H1v7zM4 4C4 2.346 4.848.99 6.502.99 8.157.99 9 2.346 9 4v1H4V4zm5.998 1V4c0-2.206-1.292-4.01-3.498-4.01C4.294-.01 2.998 1.794 2.998 4v1H0v9h13V5H9.998z"/><path d="M6 11h1V8H6z"/></g></svg><svg width="24" height="24" viewBox="-4 -4 24 24" id="icon_thumb_16x16_blue" y="252" xmlns="http://www.w3.org/2000/svg"><path fill="#2EB1D4" fill-rule="evenodd" d="M0 16V8h2v8H0zm8.6-9.964h6.007s1.59.11 1.373 1.693l-1.132 6.783A1.778 1.778 0 0113.09 16H3V8.421L6.128 0S8.6.359 8.6 2.924v3.112z"/></svg><svg width="19" height="19" viewBox="-4 -4 19 19" id="icon_type_bigimage_11x11_gray" x="262" y="184" xmlns="http://www.w3.org/2000/svg"><path fill="#DADBDD" fill-rule="evenodd" d="M0 0h5v11H0V0zm6 0h5v11H6V0z"/></svg><svg width="19" height="19" viewBox="-4 -4 19 19" id="icon_type_bigimage_11x11_white" x="281" y="184" xmlns="http://www.w3.org/2000/svg"><path fill="#fff" fill-rule="evenodd" d="M0 0h5v11H0V0zm6 0h5v11H6V0z"/></svg><svg width="19" height="19" viewBox="-4 -4 19 19" id="icon_type_gallery_11x11_gray" x="107" y="209" xmlns="http://www.w3.org/2000/svg"><path fill="#DADBDD" fill-rule="evenodd" d="M0 0h11v11H0z"/></svg><svg width="19" height="19" viewBox="-4 -4 19 19" id="icon_type_gallery_11x11_white" x="126" y="209" xmlns="http://www.w3.org/2000/svg"><path fill="#fff" fill-rule="evenodd" d="M0 0h11v11H0z"/></svg><svg width="19" height="19" viewBox="-4 -4 19 19" id="icon_type_image_11x11_gray" x="145" y="209" xmlns="http://www.w3.org/2000/svg"><path fill="#DADBDD" fill-rule="evenodd" d="M0 0h5v5H0V0zm0 6h5v5H0V6zm6-6h5v5H6V0zm0 6h5v5H6V6z"/></svg><svg width="19" height="19" viewBox="-4 -4 19 19" id="icon_type_image_11x11_white" x="164" y="209" xmlns="http://www.w3.org/2000/svg"><path fill="#fff" fill-rule="evenodd" d="M0 0h5v5H0V0zm0 6h5v5H0V6zm6-6h5v5H6V0zm0 6h5v5H6V6z"/></svg><svg width="19" height="19" viewBox="-4 -4 19 19" id="icon_type_list_11x11_gray" x="183" y="209" xmlns="http://www.w3.org/2000/svg"><path fill="#DADBDD" fill-rule="evenodd" d="M0 0h3v3H0V0zm4 0h7v1H4V0zm0 2h7v1H4V2zM0 4h3v3H0V4zm4 0h7v1H4V4zm0 2h7v1H4V6zM0 8h3v3H0V8zm4 0h7v1H4V8zm0 2h7v1H4v-1z"/></svg><svg width="19" height="19" viewBox="-4 -4 19 19" id="icon_type_list_11x11_white" x="202" y="209" xmlns="http://www.w3.org/2000/svg"><path fill="#fff" fill-rule="evenodd" d="M0 0h3v3H0V0zm4 0h7v1H4V0zm0 2h7v1H4V2zM0 4h3v3H0V4zm4 0h7v1H4V4zm0 2h7v1H4V6zM0 8h3v3H0V8zm4 0h7v1H4V8zm0 2h7v1H4v-1z"/></svg><svg width="19" height="19" viewBox="-4 -4 19 19" id="icon_x_11x11_black" x="221" y="209" xmlns="http://www.w3.org/2000/svg"><defs><path id="bha" d="M1976 121h460v548h-460z"/></defs><g fill="none" fill-rule="evenodd"><g transform="translate(-2395 -631)"><use fill="#FFF" xlink:href="#bha"/><path stroke="#000" stroke-width="2" d="M1977 122h458v546h-458z"/></g><path fill="#000" d="M10.433 0L5.5 4.933.567 0 0 .567 4.933 5.5 0 10.433.567 11 5.5 6.066 10.433 11l.567-.567L6.066 5.5 11 .567z"/></g></svg></svg>